:SAMPLES-PER-SECOND 30
:FRAME-RANGE 1-3549
:FULLY-SPECIFIED
:DEGREES
2884
root  6.77666 39.9264 -0.986193 9.56799 29.8643 -0.571445
RightUpLeg  -16.8232 3.15064 0.691897
RightLeg  15.9514 -3.17382 -1.2997
RightFoot  -6.85056 -0.103665 1.55726
RightToes  1.218e-010 1.26228e-014 -6.01869e-014
Spine  -2.43806 0.802525 1.81727
Spine1  6.55355 1.8337 -4.12308
HEad  17.1563 2.64881 -0.844359
LeftShoulder1  0.856699 -8.89929 1.35572
LeftArm  -36.6539 -58.3945 -25.8831
LeftForeArm  91.973 -77.4372 -38.1784
LeftHand  -0.0715603 14.0944 0.0750436
RightShoulder  1.08061 8.41962 0.993899
RightArm  -34.7995 65.4612 31.8434
RightForeArm  127.713 81.2752 58.6066
RightHand  1.45307 -17.7273 -13.9626
LeftUpLeg  -16.9795 1.96233 4.17118
LeftLeg  12.2604 5.54517 2.97031
LeftFoot  -3.4264 0.410036 -5.62792
LeftToes  -1.43952e-010 7.51141e-011 -1.22592e-011
2885
root  6.64482 39.8629 -1.19528 10.2036 29.9022 -0.740643
RightUpLeg  -18.3947 3.70103 0.724665
RightLeg  16.6781 -3.70439 -1.48384
RightFoot  -6.69677 -0.109768 1.65111
RightToes  1.218e-010 1.26228e-014 -6.01869e-014
Spine  -1.21343 0.795958 1.42198
Spine1  6.40871 1.75879 -3.63852
HEad  16.6199 2.4854 -0.888364
LeftShoulder1  1.10349 -8.54268 -1.2585
LeftArm  -24.7801 -55.6389 -37.3939
LeftForeArm  88.8461 -76.0392 -33.334
LeftHand  -0.0923786 13.8771 -0.212435
RightShoulder  1.39822 8.28302 4.23437
RightArm  -22.0596 61.4065 41.6407
RightForeArm  123.002 80.8486 54.5204
RightHand  1.47356 -17.282 -14.651
LeftUpLeg  -18.655 1.26456 4.43855
LeftLeg  13.2291 6.20615 3.24314
LeftFoot  -3.3544 0.414083 -5.71598
LeftToes  -1.43952e-010 7.51141e-011 -1.22592e-011
2886
root  6.49671 39.766 -1.43675 10.9171 29.9507 -0.89833
RightUpLeg  -20.3403 4.58718 0.671452
RightLeg  17.8679 -4.52663 -1.83833
RightFoot  -6.65707 -0.119044 1.80447
RightToes  1.218e-010 1.26228e-014 -6.01869e-014
Spine  0.602824 0.720121 1.02241
Spine1  5.57824 1.64128 -3.32499
HEad  15.8974 2.4442 -0.89993
LeftShoulder1  1.39527 -7.8773 -4.84506
LeftArm  -14.1716 -51.704 -46.1476
LeftForeArm  81.4296 -71.7306 -24.1177
LeftHand  -0.0736751 13.5538 0.00995177
RightShoulder  1.7337 8.23697 7.57296
RightArm  -11.6245 55.4568 47.1809
RightForeArm  112.949 79.3924 44.3673
RightHand  1.51706 -17.8364 -14.4112
LeftUpLeg  -20.6964 0.688566 4.81718
LeftLeg  14.661 6.73982 3.34868
LeftFoot  -3.43862 0.414327 -5.78113
LeftToes  -1.43952e-010 7.51141e-011 -1.22592e-011
2887
root  6.35385 39.657 -1.68158 11.7145 30.3052 -1.1784
RightUpLeg  -22.339 4.57576 0.811469
RightLeg  18.9126 -4.73262 -2.0116
RightFoot  -6.61866 -0.133194 2.06574
RightToes  1.218e-010 1.26228e-014 -6.01869e-014
Spine  2.29477 0.646273 0.872873
Spine1  4.99738 1.55277 -3.13101
HEad  14.3837 2.0329 -0.62131
LeftShoulder1  1.6806 -7.82404 -7.79824
LeftArm  -5.65798 -46.7252 -50.6696
LeftForeArm  79.9934 -66.8271 -17.836
LeftHand  -0.156967 14.6422 -0.921848
RightShoulder  2.00054 7.75963 10.9958
RightArm  -3.51384 49.4549 48.7827
RightForeArm  99.4475 75.4856 30.1518
RightHand  1.39866 -16.5 -14.8939
LeftUpLeg  -22.9822 0.464113 5.31755
LeftLeg  16.0914 6.7204 3.18681
LeftFoot  -3.56172 0.418443 -5.83753
LeftToes  -1.43952e-010 7.51141e-011 -1.22592e-011
2888
root  6.25451 39.6079 -1.87862 12.2953 30.6201 -1.3284
RightUpLeg  -23.5491 4.90015 0.797468
RightLeg  19.1843 -5.32894 -2.26727
RightFoot  -6.39525 -0.135513 2.13077
RightToes  1.218e-010 1.26228e-014 -6.01869e-014
Spine  3.01599 0.574056 0.33204
Spine1  5.52637 1.31936 -2.36821
HEad  12.2143 1.78733 -0.402158
LeftShoulder1  1.94673 -7.68725 -10.7128
LeftArm  1.85486 -43.307 -51.3947
LeftForeArm  73.8687 -57.0128 -11.2817
LeftHand  -0.077094 14.5261 0.0333843
RightShoulder  2.17745 7.43037 13.4381
RightArm  5.82482 46.766 49.0532
RightForeArm  82.8902 62.445 14.0042
RightHand  1.38183 -16.5809 -14.626
LeftUpLeg  -24.4489 0.182207 5.60349
LeftLeg  16.7085 6.72429 3.10346
LeftFoot  -3.3067 0.431101 -5.8536
LeftToes  -1.43952e-010 7.51141e-011 -1.22592e-011
2889
root  6.17659 39.6112 -2.06915 12.0707 30.2585 -1.49209
RightUpLeg  -23.6665 5.70373 0.740338
RightLeg  18.9544 -5.76206 -2.40701
RightFoot  -5.88507 -0.148281 2.27147
RightToes  1.218e-010 1.26228e-014 -6.01869e-014
Spine  3.82104 0.329194 0.635812
Spine1  5.63207 1.28721 -3.23886
HEad  12.5432 2.0042 0.577585
LeftShoulder1  1.97383 -7.82305 -10.7432
LeftArm  9.61359 -42.5061 -52.0758
LeftForeArm  71.1039 -43.537 -6.31653
LeftHand  0.207224 11.9213 4.64228
RightShoulder  2.28356 8.06026 13.2337
RightArm  16.4136 47.2323 54.1586
RightForeArm  87.7978 42.1292 5.43152
RightHand  1.98172 -15.1052 -23.4333
LeftUpLeg  -24.4862 0.445445 5.66911
LeftLeg  16.5492 6.88832 3.12863
LeftFoot  -3.0192 0.430602 -5.66779
LeftToes  -1.43952e-010 7.51141e-011 -1.22592e-011
2890
root  6.12063 39.652 -2.22511 11.7277 29.5715 -1.86925
RightUpLeg  -23.4665 6.35708 0.921589
RightLeg  18.1711 -5.72439 -2.3027
RightFoot  -5.11956 -0.156713 2.24202
RightToes  1.218e-010 1.26228e-014 -6.01869e-014
Spine  4.11165 0.390365 0.549977
Spine1  5.57976 1.33924 -3.17372
HEad  13.9458 1.35301 1.4049
LeftShoulder1  2.00087 -8.01647 -10.6715
LeftArm  10.3184 -42.041 -51.7204
LeftForeArm  68.3119 -42.2926 -6.07357
LeftHand  0.124416 13.1617 2.81955
RightShoulder  2.31209 8.3144 13.0212
RightArm  21.2076 48.6434 56.1956
RightForeArm  74.1633 36.5767 4.39533
RightHand  1.4832 -13.8618 -20.3606
LeftUpLeg  -24.1917 1.55344 5.77733
LeftLeg  16.0146 6.54819 2.95431
LeftFoot  -2.67919 0.440261 -5.59904
LeftToes  -1.43952e-010 7.51141e-011 -1.22592e-011
2891
root  6.10353 39.7408 -2.31354 11.3138 28.6919 -2.52188
RightUpLeg  -22.8158 6.42558 1.50991
RightLeg  16.6099 -4.86308 -1.89047
RightFoot  -4.07086 -0.166675 2.18655
RightToes  1.218e-010 1.26228e-014 -6.01869e-014
Spine  3.30326 0.516933 0.284798
Spine1  5.6243 1.3047 -2.53867
HEad  15.878 -0.00663057 2.43567
LeftShoulder1  1.93883 -7.97971 -10.1236
LeftArm  9.96263 -41.7942 -52.2763
LeftForeArm  63.1489 -39.6063 -5.56075
LeftHand  0.0793471 12.054 2.42865
RightShoulder  2.2202 8.21029 12.3351
RightArm  26.6325 50.4217 60.0137
RightForeArm  73.606 31.5086 3.27748
RightHand  1.43026 -14.1834 -18.9987
LeftUpLeg  -23.5852 3.12351 6.10584
LeftLeg  15.083 5.99605 2.64169
LeftFoot  -2.31565 0.45386 -5.57259
LeftToes  -1.43952e-010 7.51141e-011 -1.22592e-011
2892
root  6.12361 39.8508 -2.35404 10.5619 27.7883 -3.21444
RightUpLeg  -21.474 4.80808 2.48846
RightLeg  14.6816 -2.22499 -1.0371
RightFoot  -3.11113 -0.171161 2.08371
RightToes  1.218e-010 1.26228e-014 -6.01869e-014
Spine  2.93062 0.624509 0.344759
Spine1  5.17402 1.28686 -2.12902
HEad  17.1204 -2.11199 3.77782
LeftShoulder1  1.93957 -8.14356 -9.85646
LeftArm  12.6898 -41.6748 -52.5907
LeftForeArm  65.9127 -37.4384 -4.89673
LeftHand  0.248481 12.7742 4.80422
RightShoulder  2.22286 8.42514 11.97
RightArm  33.5656 51.5264 62.9225
RightForeArm  73.025 28.2524 2.62033
RightHand  1.54909 -14.4539 -19.886
LeftUpLeg  -22.3436 4.72602 6.53804
LeftLeg  13.7948 5.48295 2.22557
LeftFoot  -1.98278 0.44787 -5.32508
LeftToes  -1.43952e-010 7.51141e-011 -1.22592e-011
2893
root  6.12174 39.9295 -2.358 9.98627 26.5994 -3.85495
RightUpLeg  -20.0676 3.93714 3.00148
RightLeg  12.6175 0.845036 -0.20688
RightFoot  -3.36819 -0.410236 5.55175
RightToes  1.218e-010 1.26228e-014 -6.01869e-014
Spine  2.42644 0.652885 0.335274
Spine1  4.66919 1.28934 -1.98914
HEad  16.673 -4.00102 5.15719
LeftShoulder1  1.89604 -8.08428 -9.52851
LeftArm  13.8541 -40.5192 -52.1257
LeftForeArm  63.1606 -38.4599 -5.26375
LeftHand  0.380359 11.845 7.66657
RightShoulder  2.18858 8.27042 11.921
RightArm  38.8014 51.6974 64.9648
RightForeArm  71.6006 29.3717 2.89002
RightHand  1.28796 -14.1362 -17.3214
LeftUpLeg  -21.1873 5.84257 7.09868
LeftLeg  12.7084 5.60746 2.10876
LeftFoot  -1.85368 0.455508 -5.35364
LeftToes  -1.43952e-010 7.51141e-011 -1.22592e-011
2894
root  6.09349 39.9085 -2.29055 9.73798 25.3234 -3.80265
RightUpLeg  -18.8886 4.06263 2.17555
RightLeg  11.8866 3.97172 0.482762
RightFoot  -7.93088 -0.441706 12.9659
RightToes  1.218e-010 1.26228e-014 -6.01869e-014
Spine  1.56787 0.516575 -0.451463
Spine1  4.31363 1.18677 -1.96716
HEad  15.9892 -5.0919 6.051
LeftShoulder1  1.83662 -7.87605 -9.28154
LeftArm  17.8223 -39.5011 -51.8673
LeftForeArm  62.4842 -38.7746 -5.37295
LeftHand  0.338083 11.6637 7.12024
RightShoulder  2.14009 8.11983 11.7248
RightArm  47.0752 51.273 67.3948
RightForeArm  64.2307 30.4565 3.3626
RightHand  0.818328 -12.3707 -14.1041
LeftUpLeg  -20.4086 6.63266 7.23097
LeftLeg  12.5934 6.00709 2.07127
LeftFoot  -2.27938 0.450753 -5.51381
LeftToes  -1.43952e-010 7.51141e-011 -1.22592e-011
2895
root  6.06647 39.951 -2.19523 9.45117 23.9005 -3.54139
RightUpLeg  -18.0718 4.1211 1.07055
RightLeg  12.3623 4.24769 0.612924
RightFoot  -11.1287 -0.0982472 12.0196
RightToes  1.218e-010 1.26228e-014 -6.01869e-014
Spine  0.684845 0.434077 -0.834402
Spine1  4.20086 1.13493 -2.12369
HEad  15.6741 -5.74902 6.5239
LeftShoulder1  1.83359 -7.96791 -9.10179
LeftArm  23.9134 -38.1471 -51.89
LeftForeArm  58.8109 -37.6182 -5.23931
LeftHand  0.207381 10.2677 5.98284
RightShoulder  2.12958 8.06824 11.7161
RightArm  56.125 49.7032 70.4107
RightForeArm  61.5039 31.5566 3.70286
RightHand  0.55306 -12.0539 -10.342
LeftUpLeg  -18.9619 7.09845 7.28894
LeftLeg  11.6096 6.91423 1.9618
LeftFoot  -2.12744 0.474008 -5.7221
LeftToes  -1.43952e-010 7.51141e-011 -1.22592e-011
